# xmcd CD database file
#
# Track frame offsets:
#	150
#	22965
#	36870
#	60147
#	87640
#	104765
#	121370
#	140257
#	157257
#	177212
#	196900
#
# Disc length: 2884 seconds
#
# Revision: 3
# Processed by: cddbd v1.4PL0 Copyright (c) Steve Scherf et al.
# Submitted via: CDex 1.40Release
#
DISCID=920b420b
DTITLE=Patrick Vining - Ready Right Now
DYEAR=1999
DGENRE=Blues
TTITLE0=She's So Nice
TTITLE1=One Heartbeat
TTITLE2=I Need Help
TTITLE3=Spending Cash
TTITLE4=Don't Wait To Start Over
TTITLE5=Put The Blame On Me
TTITLE6=I Don't Want No Broken Heart
TTITLE7=Thank You Baby
TTITLE8=Looking For Mercy
TTITLE9=Lonesome Blues
TTITLE10=Give It Everything You've Got
EXTD=YEAR: 1999 ID3G: 0
EXTT0=
EXTT1=
EXTT2=
EXTT3=
EXTT4=
EXTT5=
EXTT6=
EXTT7=
EXTT8=
EXTT9=
EXTT10=
PLAYORDER=
